<?xml version="1.0" encoding="utf-8"?>
<!-- Generator: Adobe Illustrator 19.0.0, SVG Export Plug-In . SVG Version: 6.00 Build 0)  -->
<svg version="1.0" id="Layer_1" xmlns="http://www.w3.org/2000/svg" xmlns:xlink="http://www.w3.org/1999/xlink" x="0px" y="0px"
	 viewBox="158.4 -82.9 802.1 966.8" enable-background="new 158.4 -82.9 802.1 966.8" xml:space="preserve">
<g>
	<polygon fill="#FFFFFF" points="960.6,671 575.9,883.9 158.4,653 158.4,153 575.9,-82.9 960.6,168.5 	"/>
	<path fill="#0D879A" d="M942.4,335.9c-10-5.8-19.5-11.2-29-16.7c-16.4-9.4-32.7-19-49.2-28.3c-2.5-1.4-3.4-3-3.4-5.8
		c0.2-8.6,0-17.3,0.1-25.9c0-2.4-0.6-3.9-2.8-5.2c-65.4-37.3-130.8-74.7-196.2-112.1c-0.4-0.2-0.9-0.3-1.4-0.5
		c-1.4,1.3-0.7,2.8-0.7,4.2c0,101.5,0,203-0.1,304.5c0,4.3,1.3,5.1,5.3,5.1c31.4-0.2,62.8-0.1,94.2-0.1c1.8,0,3.6,0,5.4,0
		c0.7,1.9-0.7,2.9-1.4,4.1c-14.3,24.9-28.7,49.7-42.9,74.6c-1.7,2.9-3.5,4.1-6.9,4.1c-16.3-0.2-32.6,0-48.8-0.2
		c-4.1-0.1-4.9,1.2-4.9,5c0.1,67.5,0,134.9,0.2,202.4c0,5.1-1.7,7.6-5.9,10c-24.7,14.4-49.1,29-73.8,43.4c-2.4,1.4-2.6,3-2.6,5.2
		c0,17.9,0,35.9,0,53.8c0,6.4,0,6.4-5.5,3.2c-76.1-44.1-152.1-88.1-228.2-132.2c-54.4-31.5-108.8-63-163.3-94.4
		c-3.5-2-4.6-4.2-4.6-8.1c0.2-51.7,0.3-103.3,0.4-155c0.2-65.6,0.4-131.2,0.5-196.9c0.1-33.4,0.2-66.8,0.1-100.2
		c0-3.2,0.9-5,3.7-6.7c130.7-75.5,261.4-151.1,392-226.7c4.8-2.8,4.8-2.7,4.8,2.8c0,17.4,0.1,34.9-0.1,52.3c0,2.6,0.7,4,3.1,5.4
		c119.4,68.2,238.8,136.5,358.2,204.7c2.3,1.3,3.8,2.5,3.8,5.6c-0.1,40.7-0.1,81.4-0.1,122.1C942.7,334.1,942.6,334.6,942.4,335.9z
		 M575.6,336.1c0.1-1.7,0.2-2.4,0.2-3.2c0-109.5,0-219,0.1-328.5c0-5.2-1.9-3.4-4.4-1.9C452.7,72.8,334,143.2,215.1,213.4
		c-3,1.8-4,3.7-4,7.1c0.1,122.3,0.1,244.6,0,366.9c0,3.3,1.1,4.9,3.9,6.6c118.7,67.8,237.4,135.7,356,203.5c4.7,2.7,4.8,2.7,4.8-2.9
		c0-111.5,0-223,0.1-334.5c0-3.8-0.8-5.1-4.9-5c-59.5,0.1-119,0.1-178.5,0.1c-1.2,0-2.6-0.4-3.6,0.5c0.1,0.5,0.2,0.8,0.3,1.1
		c15.1,26.2,30.2,52.3,45.1,78.5c1.3,2.3,3,2.6,5.3,2.6c16.4-0.1,32.9,0.1,49.3-0.1c4.2-0.1,5.2,1.2,5.1,5.3
		c-0.2,37.1-0.1,74.1-0.1,111.2c0,1.4,0.6,2.9-0.7,4.3c-0.6-0.3-1.2-0.5-1.8-0.8c-65.2-37.3-130.4-74.6-195.7-111.8
		c-2.5-1.4-2.9-3.1-2.9-5.6c0.1-11.5,0-22.9,0-34.4c0-79.4,0-158.9,0-238.3c0-3.2,0.4-5.3,3.6-7.3c64.2-37.8,128.2-75.9,192.3-113.8
		c1.4-0.8,3.3-2.3,4.3-1.9c1.9,0.8,0.8,3.2,0.8,4.9c0.1,44.9,0.1,89.7-0.1,134.6c0,3.9,1.3,6,4.6,7.7c4.6,2.3,8.9,5.1,13.4,7.7
		C532.9,311.5,553.9,323.6,575.6,336.1z"/>
</g>
</svg>
