<?xml version="1.0" encoding="utf-8"?>
<!-- Generator: Adobe Illustrator 19.0.0, SVG Export Plug-In . SVG Version: 6.00 Build 0)  -->
<svg version="1.1" id="Layer_1" xmlns="http://www.w3.org/2000/svg" xmlns:xlink="http://www.w3.org/1999/xlink" x="0px" y="0px"
	 width="869.7px" height="1004.2px" viewBox="0 0 869.7 1004.2" enable-background="new 0 0 869.7 1004.2" xml:space="preserve">
<g id="XMLID_28_">
	<polygon id="XMLID_2_" fill="#FFFFFF" points="434.9,1004.2 434.9,1004.2 434.9,0 434.9,0 869.7,251.1 869.7,753.2 	"/>
	<polygon id="XMLID_20_" fill="#11879A" points="434.9,1004.2 0,753.2 0,251.1 434.9,0 434.9,0 434.9,1004.2 	"/>
</g>
<polygon id="XMLID_3_" fill="#FFFFFF" points="434.9,928.7 65.4,715.4 65.4,288.8 434.9,75.6 434.9,75.6 434.9,928.7 "/>
<polygon id="XMLID_6_" fill="#11879A" points="434.9,928.7 434.9,928.7 434.9,75.6 434.9,75.6 804.3,288.8 804.3,715.4 "/>
<g id="XMLID_27_">
	<polygon id="XMLID_4_" fill="#FFFFFF" points="434.9,815.8 434.9,815.8 434.9,188.5 434.9,188.5 706.5,345.3 706.5,659 	"/>
	<polygon id="XMLID_5_" fill="#11879A" points="434.9,815.8 163.2,659 163.2,345.3 434.9,188.5 434.9,188.5 434.9,815.8 	"/>
</g>
<rect id="XMLID_25_" x="336.4" y="555.8" fill="#FFFFFF" width="98.4" height="307.8"/>
<polygon id="XMLID_22_" fill="#11879A" points="533.3,871.9 434.9,928.7 434.9,188.5 533.3,188.5 "/>
<polygon id="XMLID_19_" display="none" fill="#11879A" points="804.4,357.1 706.5,406.7 706.2,357.1 804.4,357.1 "/>
<polygon id="XMLID_21_" fill="#FFFFFF" points="816.3,718.4 533.3,885.9 533.3,749.7 816.3,583.6 "/>
<polygon id="XMLID_23_" fill="#FFFFFF" points="815.3,635.6 696.5,678 696.5,444 815.2,444 "/>
<polyline id="XMLID_29_" fill="#11879A" points="804.3,444 804.3,378.6 706.5,378.6 "/>
<polygon id="XMLID_152_" fill="#FFFFFF" points="695.5,371.2 695.5,451.4 815.3,451.4 "/>
<g id="XMLID_1_">
	<rect id="XMLID_30_" x="336.4" y="132.3" fill="#FFFFFF" width="98.4" height="254.3"/>
	<polyline id="XMLID_33_" fill="#FFFFFF" points="434.9,444 434.9,386.6 336.4,386.6 	"/>
</g>
<rect id="XMLID_32_" x="287.4" y="555.8" fill="#FFFFFF" width="86.5" height="98.3"/>
<polyline id="XMLID_24_" fill="#FFFFFF" points="229.9,556 287.4,555.8 287.4,654 "/>
<g id="XMLID_7_">
	<polyline id="XMLID_8_" fill="#11879A" points="637.2,556 579.8,555.8 579.8,654 	"/>
	<rect id="XMLID_36_" x="528.5" y="555.8" fill="#11879A" width="51.3" height="98.3"/>
</g>
<path id="XMLID_151_" fill="#11879A" d="M-131.1,166.1"/>
</svg>
