<?xml version="1.0" encoding="utf-8"?>
<!-- Generator: Adobe Illustrator 19.0.0, SVG Export Plug-In . SVG Version: 6.00 Build 0)  -->
<svg version="1.1" id="Layer_1" xmlns="http://www.w3.org/2000/svg" xmlns:xlink="http://www.w3.org/1999/xlink" x="0px" y="0px"
	 viewBox="135 -123 882 1039" style="enable-background:new 135 -123 882 1039;" xml:space="preserve">
<style type="text/css">
	.st0{fill:#FEFEFE;}
	.st1{fill:#0D879A;}
	.st2{fill:#FDFEFE;}
	.st3{fill:none;enable-background:new    ;}
</style>
<g>
	<path class="st0" d="M136,400.4c0-168.7,0-337.3-0.1-506c0-4,1.1-4.5,4.7-4.5c290.8,0.1,581.7,0.1,872.5,0c4.5,0,5,1.2,5,5.2
		c-0.1,337-0.1,674,0,1011c0,4.5-1.2,5-5.2,5c-290.7-0.1-581.3-0.1-872,0c-4.5,0-5-1.2-5-5.2C136,737.4,136,568.9,136,400.4z
		 M943.5,335.3c0.2-1.3,0.3-1.8,0.3-2.3c0-40.8,0-81.7,0.1-122.5c0-3.1-1.5-4.3-3.8-5.6C820.4,136.5,700.7,68,580.9-0.4
		c-2.4-1.4-3.2-2.7-3.1-5.4c0.1-17.5,0.1-35,0.1-52.5c0-5.5,0-5.6-4.8-2.8C442,14.7,310.9,90.5,179.8,166.3
		c-2.9,1.7-3.7,3.5-3.7,6.7c0.1,33.5,0,67-0.1,100.5c-0.2,65.8-0.4,131.6-0.5,197.4c-0.1,51.8-0.2,103.6-0.4,155.5
		c0,4,1.1,6.1,4.6,8.2c54.6,31.5,109.2,63.1,163.7,94.7c76.3,44.2,152.6,88.4,228.9,132.6c5.5,3.2,5.5,3.2,5.5-3.2c0-18,0-36,0-54
		c0-2.2,0.2-3.8,2.6-5.2c24.7-14.4,49.3-29.1,74-43.5c4.1-2.4,5.9-4.9,5.9-10.1c-0.2-67.7-0.1-135.3-0.2-203c0-3.8,0.8-5.1,4.9-5
		c16.3,0.2,32.7,0,49,0.2c3.5,0,5.3-1.2,7-4.1c14.3-25,28.7-49.9,43-74.9c0.7-1.2,2.1-2.2,1.4-4.1c-1.8,0-3.6,0-5.5,0
		c-31.5,0-63-0.1-94.5,0.1c-4,0-5.3-0.8-5.3-5.1c0.1-101.8,0.1-203.6,0.1-305.5c0-1.4-0.7-2.9,0.7-4.2c0.5,0.2,1,0.3,1.4,0.5
		c65.6,37.5,131.2,75,196.8,112.4c2.2,1.3,2.8,2.8,2.8,5.2c-0.1,8.7,0.1,17.3-0.1,26c-0.1,2.9,0.9,4.4,3.4,5.9
		c16.5,9.3,32.9,18.9,49.3,28.4C924,324,933.5,329.5,943.5,335.3z"/>
	<path class="st1" d="M943.5,335.3c-10.1-5.8-19.6-11.3-29-16.8c-16.4-9.5-32.8-19-49.3-28.4c-2.5-1.4-3.5-3-3.4-5.9
		c0.2-8.7,0-17.3,0.1-26c0-2.4-0.6-4-2.8-5.2c-65.6-37.4-131.2-74.9-196.8-112.4c-0.4-0.2-0.9-0.3-1.4-0.5c-1.4,1.3-0.7,2.8-0.7,4.2
		c0,101.8,0,203.6-0.1,305.5c0,4.3,1.3,5.1,5.3,5.1c31.5-0.2,63-0.1,94.5-0.1c1.8,0,3.7,0,5.5,0c0.7,1.9-0.7,2.9-1.4,4.1
		c-14.3,25-28.8,49.9-43,74.9c-1.7,2.9-3.5,4.1-7,4.1c-16.3-0.2-32.7,0-49-0.2c-4.1-0.1-4.9,1.2-4.9,5c0.1,67.7,0,135.3,0.2,203
		c0,5.1-1.7,7.6-5.9,10.1c-24.7,14.4-49.3,29.1-74,43.5c-2.4,1.4-2.6,3-2.6,5.2c0,18,0,36,0,54c0,6.4,0,6.4-5.5,3.2
		c-76.3-44.2-152.6-88.4-228.9-132.6c-54.6-31.6-109.1-63.2-163.7-94.7c-3.5-2-4.7-4.2-4.6-8.2c0.2-51.8,0.3-103.6,0.4-155.5
		c0.2-65.8,0.4-131.6,0.5-197.4c0.1-33.5,0.2-67,0.1-100.5c0-3.2,0.9-5,3.7-6.7C310.9,90.5,442,14.7,573-61.1
		c4.8-2.8,4.8-2.7,4.8,2.8c0,17.5,0.1,35-0.1,52.5c0,2.7,0.7,4,3.1,5.4C700.7,68,820.4,136.5,940.2,204.9c2.3,1.3,3.8,2.5,3.8,5.6
		c-0.1,40.8-0.1,81.7-0.1,122.5C943.8,333.5,943.7,334,943.5,335.3z M575.6,335.5c0.1-1.7,0.2-2.5,0.2-3.2
		c0-109.8,0-219.7,0.1-329.5c0-5.2-1.9-3.4-4.4-1.9C452.4,71.4,333.2,142,214.1,212.4c-3,1.8-4,3.7-4,7.1c0.1,122.7,0.1,245.3,0,368
		c0,3.3,1.1,5,3.9,6.6C333,662.1,452,730.2,571.1,798.2c4.7,2.7,4.8,2.7,4.8-3c0-111.8,0-223.7,0.1-335.5c0-3.8-0.8-5.1-4.9-5.1
		c-59.7,0.1-119.3,0.1-179,0.1c-1.2,0-2.6-0.4-3.7,0.5c0.1,0.5,0.2,0.8,0.3,1.1c15.1,26.3,30.2,52.5,45.3,78.8
		c1.3,2.3,3,2.6,5.3,2.6c16.5-0.1,33,0.1,49.5-0.1c4.2-0.1,5.2,1.2,5.2,5.3c-0.2,37.2-0.1,74.3-0.1,111.5c0,1.4,0.6,2.9-0.7,4.3
		c-0.6-0.3-1.2-0.5-1.8-0.8c-65.4-37.4-130.8-74.8-196.3-112.2c-2.5-1.4-2.9-3.1-2.9-5.7c0.1-11.5,0-23,0-34.5c0-79.7,0-159.3,0-239
		c0-3.2,0.4-5.4,3.6-7.3c64.4-38,128.6-76.1,192.9-114.2c1.4-0.8,3.4-2.3,4.3-1.9c1.9,0.8,0.8,3.2,0.8,4.9c0.1,45,0.1,90-0.1,135
		c0,4,1.3,6,4.6,7.7c4.6,2.3,9,5.1,13.4,7.7C532.8,310.8,553.8,322.9,575.6,335.5z"/>
	<path class="st2" d="M575.6,335.5c-21.8-12.6-42.9-24.7-63.9-36.8c-4.5-2.6-8.8-5.3-13.4-7.7c-3.3-1.7-4.6-3.7-4.6-7.7
		c0.2-45,0.1-90,0.1-135c0-1.7,1.1-4.1-0.8-4.9c-1-0.4-2.9,1.1-4.3,1.9c-64.3,38.1-128.6,76.2-192.9,114.2c-3.2,1.9-3.6,4.1-3.6,7.3
		c0,79.7,0,159.3,0,239c0,11.5,0.1,23,0,34.5c0,2.5,0.4,4.3,2.9,5.7c65.5,37.3,130.9,74.8,196.3,112.2c0.5,0.3,1.2,0.5,1.8,0.8
		c1.3-1.4,0.7-2.9,0.7-4.3c0-37.2,0-74.3,0.1-111.5c0-4.1-0.9-5.4-5.2-5.3c-16.5,0.2-33,0.1-49.5,0.1c-2.3,0-4-0.3-5.3-2.6
		c-15-26.3-30.2-52.5-45.3-78.8c-0.2-0.3-0.2-0.6-0.3-1.1c1.1-1,2.5-0.5,3.7-0.5c59.7,0,119.3,0,179-0.1c4.1,0,4.9,1.3,4.9,5.1
		c-0.1,111.8-0.1,223.7-0.1,335.5c0,5.6,0,5.7-4.8,3C452,730.2,333,662.1,214,594.1c-2.8-1.6-3.9-3.3-3.9-6.6
		c0.1-122.7,0.1-245.3,0-368c0-3.4,0.9-5.3,4-7.1C333.2,142,452.4,71.4,571.5,0.8c2.5-1.5,4.4-3.3,4.4,1.9
		c-0.1,109.8-0.1,219.7-0.1,329.5C575.8,333,575.7,333.8,575.6,335.5z"/>
</g>
<path class="st3" d="z"/>
</svg>
